<svg width="304" height="216" viewBox="0 0 304 216" fill="none" xmlns="http://www.w3.org/2000/svg">
<path d="M26.5669 216C33.6107 215.991 40.3642 212.782 45.3438 207.077C50.3245 201.372 53.1262 193.636 53.1327 185.569V109.77C53.0581 104.346 53.9259 98.9595 55.6863 93.9237C57.447 88.8879 60.0643 84.3044 63.3864 80.438C66.7093 76.5716 70.6698 73.5013 75.0381 71.4061C79.4064 69.3105 84.0953 68.2314 88.8312 68.2314C93.5671 68.2314 98.256 69.3105 102.624 71.4061C106.993 73.5013 110.953 76.5716 114.276 80.438C117.598 84.3044 120.215 88.8879 121.976 93.9237C123.736 98.9595 124.604 104.346 124.53 109.77V185.569C124.53 193.638 127.329 201.378 132.31 207.084C137.293 212.791 144.05 215.997 151.096 215.997C158.142 215.997 164.899 212.791 169.881 207.084C174.864 201.378 177.662 193.638 177.662 185.569V101.744C177.662 88.3833 175.365 75.1524 170.901 62.808C166.436 50.4641 159.893 39.2483 151.644 29.7996C143.396 20.3522 133.603 12.8577 122.825 7.74416C112.048 2.63192 100.497 0 88.8312 0C77.1657 0 65.6141 2.63192 54.8367 7.74416C44.0593 12.8577 34.267 20.3522 26.0186 29.7996C17.7691 39.2483 11.2258 50.4641 6.76239 62.808C2.29787 75.1524 0 88.3833 0 101.744V185.569C0.00779298 193.636 2.80839 201.372 7.78898 207.077C12.7696 212.782 19.5231 215.991 26.5669 216ZM11.6229 101.751C11.6229 78.2965 19.7578 55.804 34.2369 39.2203C48.7162 22.6363 68.3542 13.3189 88.8312 13.3189C109.308 13.3189 128.946 22.6363 143.426 39.2203C157.905 55.804 166.039 78.2965 166.039 101.751V185.569C166.005 190.082 164.416 194.398 161.617 197.576C158.818 200.754 155.037 202.537 151.096 202.537C147.155 202.537 143.373 200.754 140.574 197.576C137.776 194.398 136.187 190.082 136.153 185.569V109.77C136.153 95.3951 131.167 81.6087 122.292 71.4442C113.418 61.2796 101.382 55.5699 88.8312 55.5699C76.2809 55.5699 64.2441 61.2796 55.3693 71.4442C46.4962 81.6087 41.5097 95.3951 41.5097 109.77V185.569C41.5097 190.108 39.936 194.461 37.1332 197.671C34.3304 200.881 30.5298 202.684 26.5669 202.684C22.6029 202.684 18.8024 200.881 15.9996 197.671C13.1978 194.461 11.6229 190.108 11.6229 185.569V101.751Z" fill="white"/>
<path d="M152.905 216C159.949 215.991 166.702 212.782 171.681 207.077C176.662 201.372 179.464 193.636 179.47 185.569V109.77C179.396 104.346 180.263 98.9595 182.024 93.9237C183.785 88.8879 186.402 84.3044 189.724 80.438C193.047 76.5716 197.007 73.5013 201.376 71.4061C205.744 69.3105 210.433 68.2314 215.169 68.2314C219.905 68.2314 224.594 69.3105 228.962 71.4061C233.33 73.5013 237.291 76.5716 240.613 80.438C243.935 84.3044 246.553 88.8879 248.313 93.9237C250.074 98.9595 250.942 104.346 250.867 109.77V185.569C250.867 193.638 253.666 201.378 258.648 207.084C263.63 212.791 270.388 215.997 277.434 215.997C284.48 215.997 291.237 212.791 296.219 207.084C301.201 201.378 304 193.638 304 185.569V101.744C304 88.3833 301.702 75.1524 297.238 62.808C292.774 50.4641 286.231 39.2483 277.982 29.7996C269.733 20.3522 259.941 12.8577 249.163 7.74416C238.385 2.63192 226.834 0 215.169 0C203.503 0 191.952 2.63192 181.174 7.74416C170.397 12.8577 160.604 20.3522 152.356 29.7996C144.107 39.2483 137.564 50.4641 133.1 62.808C128.635 75.1524 126.338 88.3833 126.338 101.744V185.569C126.346 193.636 129.146 201.372 134.127 207.077C139.107 212.782 145.861 215.991 152.905 216ZM137.96 101.751C137.96 78.2965 146.095 55.804 160.574 39.2203C175.054 22.6363 194.692 13.3189 215.169 13.3189C235.646 13.3189 255.284 22.6363 269.763 39.2203C284.243 55.804 292.377 78.2965 292.377 101.751V185.569C292.343 190.082 290.754 194.398 287.955 197.576C285.156 200.754 281.375 202.537 277.434 202.537C273.493 202.537 269.711 200.754 266.912 197.576C264.114 194.398 262.524 190.082 262.49 185.569V109.77C262.49 95.3951 257.505 81.6087 248.63 71.4442C239.755 61.2796 227.719 55.5699 215.169 55.5699C202.618 55.5699 190.582 61.2796 181.707 71.4442C172.834 81.6087 167.847 95.3951 167.847 109.77V185.569C167.847 190.108 166.274 194.461 163.471 197.671C160.668 200.881 156.868 202.684 152.905 202.684C148.941 202.684 145.14 200.881 142.337 197.671C139.536 194.461 137.96 190.108 137.96 185.569V101.751Z" fill="white"/>
</svg>
