<svg width="500" height="58" viewBox="0 0 500 58" fill="none" xmlns="http://www.w3.org/2000/svg">
<g clip-path="url(#clip0_402_2)">
<path d="M30.3699 5.76021C30.0278 5.72007 21.5544 4.65591 15.0508 8.57591C12.1118 10.3573 10.083 13.1498 9.45115 16.2192C8.62732 20.6495 11.3515 23.0684 13.2245 24.1333C12.442 26.5822 11.8782 30.1279 12.9001 33.9458C12.9755 34.2561 13.3459 34.4126 13.6598 34.3364C14.0185 34.2493 14.2217 33.9125 14.1463 33.6022C13.228 30.2109 13.6877 27.019 14.3191 24.73C14.5267 24.8028 14.6353 24.8586 14.6353 24.8586C17.063 25.6656 19.0688 25.7126 20.728 25.3097C23.7325 24.5803 25.5697 22.3682 26.55 20.7338C27.398 19.3369 27.8213 17.7556 27.7586 16.128C27.3614 9.40666 30.6148 6.76861 30.6148 6.76861C30.8107 6.59782 30.8982 6.37124 30.8511 6.17731C30.7946 5.94461 30.613 5.78334 30.3699 5.76021ZM26.4111 16.2498C26.4716 17.6725 26.1451 19.0661 25.394 20.2752C23.8042 22.9201 20.7679 25.6697 15.181 23.7815C15.181 23.7815 14.9734 23.7087 14.7021 23.5692C15.2079 22.1321 15.7111 21.2707 15.7017 21.2319L17.9246 17.2834C18.104 17.2398 18.2479 17.246 18.4273 17.2024C20.1761 16.7778 22.1591 15.5571 22.2394 15.4965C22.525 15.304 22.6291 14.9502 22.4286 14.7113C22.2282 14.4725 21.8318 14.4045 21.5461 14.597C21.0457 14.8828 19.8394 15.5864 18.6923 15.947L19.6892 14.1854C19.8569 13.8982 19.7273 13.56 19.4112 13.4314C19.095 13.3028 18.7009 13.4396 18.5332 13.7268L15.1905 19.7132C14.8206 18.7763 14.6726 17.5801 14.6399 17.0541C14.6094 16.7329 14.3193 16.5159 13.9511 16.5642C13.5829 16.6125 13.3161 16.8826 13.3466 17.2038C13.3749 17.3201 13.5268 19.7064 14.4322 21.0884C14.2385 21.464 13.9573 22.0662 13.5981 22.9337C12.0672 21.909 10.0578 19.8915 10.7655 16.3519C11.2839 13.5975 13.1001 11.103 15.7534 9.51422C20.4346 6.69381 26.4592 6.6686 28.9157 6.81148C27.8246 8.18528 26.1569 11.0955 26.4111 16.2498Z" fill="#F7E36E"/>
<path d="M28.9158 6.81166C27.8153 8.14667 26.1122 11.1066 26.4112 16.2499C26.4717 17.6727 26.1452 19.0662 25.3941 20.2754C23.8044 22.9202 20.768 25.6699 15.1811 23.7817C15.1811 23.7817 14.9735 23.7089 14.7022 23.5694C15.2081 22.1323 15.7112 21.2709 15.7018 21.2321L17.9247 17.2836C18.1041 17.24 18.248 17.2461 18.4274 17.2026C20.1763 16.778 22.1592 15.5573 22.2395 15.4967C22.5251 15.3042 22.6292 14.9503 22.4287 14.7115C22.2283 14.4727 21.8319 14.4046 21.5462 14.5972C21.0458 14.883 19.8395 15.5865 18.6924 15.9472L19.6893 14.1855C19.857 13.8984 19.7274 13.5602 19.4113 13.4316C19.0952 13.303 18.701 13.4398 18.5333 13.7269L15.1906 19.7134C14.8207 18.7764 14.6727 17.5802 14.64 17.0543C14.6095 16.7331 14.3194 16.516 13.9512 16.5644C13.5831 16.6127 13.3162 16.8828 13.3467 17.204C13.375 17.3203 13.527 19.7066 14.4323 21.0885C14.2386 21.4641 13.9574 22.0663 13.5982 22.9339C12.0673 21.9092 10.0579 19.8917 10.7656 16.3521C11.284 13.5977 13.1002 11.1032 15.7536 9.51439C20.4347 6.69398 26.4593 6.66878 28.9158 6.81166Z" fill="#F7E36E" fill-opacity="0.2"/>
<path d="M390.649 47.7521C390.332 47.6184 382.489 44.2394 375.151 46.1957C371.833 47.0893 369.107 49.2074 367.647 51.9799C365.623 56.0062 367.567 59.0874 369.07 60.6312C367.637 62.7658 366.109 66.0148 366.029 69.9663C366.015 70.2853 366.327 70.5386 366.65 70.5527C367.019 70.5689 367.308 70.3019 367.321 69.9829C367.383 66.47 368.712 63.5319 369.955 61.5089C370.134 61.6366 370.223 61.7203 370.223 61.7203C372.331 63.1708 374.244 63.7738 375.95 63.8483C379.039 63.9834 381.419 62.3696 382.815 61.0723C384.018 59.9664 384.865 58.5652 385.257 56.9844C386.745 50.4179 390.604 48.7888 390.604 48.7888C390.839 48.6793 390.986 48.486 390.995 48.2866C391.006 48.0474 390.876 47.842 390.649 47.7521ZM383.929 56.7266C383.591 58.1101 382.89 59.3578 381.832 60.3103C379.569 62.4086 375.888 64.2052 371.047 60.8375C371.047 60.8375 370.868 60.7098 370.646 60.5004C371.532 59.2607 372.254 58.5732 372.256 58.5334L375.49 55.3589C375.674 55.367 375.811 55.4129 375.995 55.421C377.793 55.4996 380.037 54.8786 380.131 54.8428C380.459 54.7372 380.657 54.4263 380.531 54.1412C380.405 53.856 380.043 53.6804 379.716 53.7859C379.155 53.9212 377.801 54.2615 376.599 54.2888L378.046 52.874C378.287 52.6448 378.257 52.284 377.989 52.0725C377.721 51.861 377.304 51.8828 377.064 52.1119L372.188 56.9324C372.093 55.9295 372.283 54.7394 372.398 54.2251C372.458 53.9081 372.24 53.6189 371.873 53.5629C371.506 53.5069 371.175 53.6922 371.114 54.0091C371.109 54.1288 370.592 56.4631 371.077 58.0424C370.786 58.3493 370.349 58.8495 369.762 59.5829C368.577 58.1728 367.208 55.676 368.872 52.4729C370.136 49.9714 372.575 48.0806 375.565 47.2925C380.846 45.8854 386.64 47.5369 388.96 48.3574C387.53 49.3735 385.118 51.705 383.929 56.7266Z" fill="#F7E36E"/>
<path d="M388.96 48.3577C387.532 49.334 385.072 51.7033 383.929 56.7269C383.591 58.1104 382.89 59.3581 381.832 60.3106C379.57 62.4089 375.888 64.2055 371.047 60.8378C371.047 60.8378 370.868 60.7101 370.646 60.5007C371.532 59.261 372.255 58.5735 372.256 58.5337L375.49 55.3592C375.674 55.3673 375.811 55.4132 375.995 55.4213C377.793 55.4999 380.037 54.8789 380.131 54.843C380.459 54.7375 380.658 54.4266 380.531 54.1415C380.405 53.8563 380.044 53.6807 379.716 53.7862C379.155 53.9215 377.801 54.2618 376.599 54.2891L378.046 52.8743C378.287 52.6451 378.257 52.2842 377.989 52.0728C377.721 51.8613 377.305 51.8831 377.064 52.1122L372.188 56.9327C372.093 55.9298 372.284 54.7397 372.398 54.2253C372.458 53.9084 372.24 53.6192 371.873 53.5632C371.506 53.5072 371.175 53.6924 371.115 54.0094C371.109 54.129 370.592 56.4634 371.077 58.0427C370.786 58.3496 370.349 58.8498 369.762 59.5832C368.577 58.1731 367.208 55.6763 368.872 52.4732C370.136 49.9717 372.575 48.0808 375.565 47.2927C380.846 45.8857 386.64 47.5372 388.96 48.3577Z" fill="#F7E36E" fill-opacity="0.2"/>
<path d="M329.649 -7.24787C329.332 -7.38159 321.489 -10.7606 314.151 -8.80427C310.833 -7.91066 308.107 -5.79264 306.647 -3.0201C304.623 1.00623 306.567 4.08741 308.07 5.63124C306.637 7.76582 305.109 11.0148 305.029 14.9663C305.015 15.2853 305.327 15.5386 305.65 15.5527C306.019 15.5689 306.308 15.3019 306.321 14.9829C306.383 11.47 307.712 8.53191 308.955 6.50889C309.134 6.63657 309.223 6.72035 309.223 6.72035C311.331 8.17076 313.244 8.77376 314.95 8.84833C318.039 8.98336 320.419 7.36959 321.815 6.07234C323.018 4.96641 323.865 3.56523 324.257 1.98442C325.745 -4.58213 329.604 -6.21116 329.604 -6.21116C329.839 -6.32071 329.986 -6.51402 329.995 -6.71339C330.006 -6.95263 329.876 -7.15804 329.649 -7.24787ZM322.929 1.7266C322.591 3.11007 321.89 4.3578 320.832 5.31029C318.569 7.40859 314.888 9.20517 310.047 5.83753C310.047 5.83753 309.868 5.70984 309.646 5.5004C310.532 4.26074 311.254 3.57325 311.256 3.53338L314.49 0.358935C314.674 0.366997 314.811 0.412916 314.995 0.420978C316.793 0.499579 319.037 -0.121398 319.131 -0.15724C319.459 -0.262752 319.657 -0.573676 319.531 -0.858835C319.405 -1.14399 319.043 -1.31961 318.716 -1.2141C318.155 -1.07879 316.801 -0.738505 315.599 -0.711159L317.046 -2.12601C317.287 -2.35517 317.257 -2.71604 316.989 -2.9275C316.721 -3.13896 316.304 -3.11722 316.064 -2.88806L311.188 1.9324C311.093 0.929527 311.283 -0.260623 311.398 -0.774943C311.458 -1.09191 311.24 -1.3811 310.873 -1.4371C310.506 -1.4931 310.175 -1.30784 310.114 -0.990868C310.109 -0.871248 309.592 1.46313 310.077 3.04237C309.786 3.34926 309.349 3.84948 308.762 4.58288C307.577 3.17278 306.208 0.676019 307.872 -2.52707C309.136 -5.02857 311.575 -6.91945 314.565 -7.70754C319.846 -9.1146 325.64 -7.46308 327.96 -6.64258C326.53 -5.62646 324.118 -3.29497 322.929 1.7266Z" fill="#F7E36E"/>
<path d="M327.96 -6.64229C326.532 -5.66605 324.072 -3.2967 322.929 1.72689C322.591 3.11036 321.89 4.35808 320.832 5.31058C318.57 7.40888 314.888 9.20546 310.047 5.83781C310.047 5.83781 309.868 5.71013 309.646 5.50069C310.532 4.26102 311.255 3.57354 311.256 3.53366L314.49 0.359223C314.674 0.367284 314.811 0.413204 314.995 0.421265C316.793 0.499867 319.037 -0.12111 319.131 -0.156953C319.459 -0.262464 319.658 -0.573388 319.531 -0.858547C319.405 -1.14371 319.044 -1.31932 318.716 -1.21381C318.155 -1.0785 316.801 -0.738217 315.599 -0.710872L317.046 -2.12572C317.287 -2.35488 317.257 -2.71575 316.989 -2.92721C316.721 -3.13867 316.305 -3.11694 316.064 -2.88777L311.188 1.93269C311.093 0.929814 311.284 -0.260335 311.398 -0.774656C311.458 -1.09163 311.24 -1.38082 310.873 -1.43681C310.506 -1.49281 310.175 -1.30755 310.115 -0.99058C310.109 -0.87096 309.592 1.46342 310.077 3.04266C309.786 3.34955 309.349 3.84976 308.762 4.58317C307.577 3.17306 306.208 0.676307 307.872 -2.52679C309.136 -5.02828 311.575 -6.91916 314.565 -7.70725C319.846 -9.11431 325.64 -7.46279 327.96 -6.64229Z" fill="#F7E36E" fill-opacity="0.2"/>
<path d="M67.7776 20.7109C67.4601 20.5771 59.6171 17.1981 52.2798 19.1545C48.9613 20.0481 46.2359 22.1661 44.7752 24.9386C42.7516 28.965 44.6954 32.0462 46.1983 33.59C44.7655 35.7246 43.2378 38.9736 43.1574 42.925C43.1435 43.244 43.4557 43.4974 43.7784 43.5115C44.1473 43.5276 44.4361 43.2606 44.45 42.9416C44.5112 39.4287 45.8406 36.4906 47.0838 34.4676C47.2629 34.5953 47.3516 34.6791 47.3516 34.6791C49.4591 36.1295 51.3727 36.7325 53.0785 36.8071C56.1673 36.9421 58.5473 35.3283 59.9435 34.0311C61.1466 32.9251 61.9931 31.524 62.3855 29.9432C63.8735 23.3766 67.7323 21.7476 67.7323 21.7476C67.968 21.638 68.115 21.4447 68.1237 21.2453C68.1342 21.0061 68.0046 20.8007 67.7776 20.7109ZM61.0573 29.6853C60.7197 31.0688 60.0185 32.3165 58.9607 33.269C56.698 35.3673 53.0167 37.1639 48.1755 33.7963C48.1755 33.7963 47.9963 33.6686 47.7745 33.4591C48.6601 32.2195 49.383 31.532 49.3847 31.4921L52.6182 28.3177C52.8026 28.3257 52.9392 28.3717 53.1236 28.3797C54.9215 28.4583 57.1658 27.8373 57.2597 27.8015C57.5877 27.696 57.786 27.3851 57.6599 27.0999C57.5338 26.8147 57.172 26.6391 56.844 26.7446C56.2839 26.88 54.9295 27.2202 53.7274 27.2476L55.1749 25.8327C55.4159 25.6036 55.3854 25.2427 55.1176 25.0312C54.8497 24.8198 54.433 24.8415 54.192 25.0707L49.3162 29.8911C49.2214 28.8883 49.412 27.6981 49.5269 27.1838C49.5869 26.8668 49.3686 26.5776 49.0016 26.5216C48.6345 26.4656 48.3031 26.6509 48.243 26.9679C48.2378 27.0875 47.72 29.4219 48.2053 31.0011C47.9147 31.308 47.4772 31.8082 46.8908 32.5416C45.7053 31.1315 44.3364 28.6348 46.0007 25.4317C47.2648 22.9302 49.7031 21.0393 52.6937 20.2512C57.9747 18.8441 63.7685 20.4957 66.0883 21.3162C64.6582 22.3323 62.2468 24.6638 61.0573 29.6853Z" fill="#F7E36E"/>
<path d="M66.0884 21.3165C64.66 22.2927 62.2008 24.662 61.0574 29.6856C60.7198 31.0691 60.0186 32.3168 58.9608 33.2693C56.6981 35.3676 53.0168 37.1642 48.1756 33.7966C48.1756 33.7966 47.9964 33.6689 47.7746 33.4594C48.6602 32.2198 49.3831 31.5323 49.3848 31.4924L52.6183 28.318C52.8027 28.326 52.9393 28.3719 53.1237 28.38C54.9216 28.4586 57.1659 27.8376 57.2598 27.8018C57.5878 27.6963 57.7861 27.3854 57.66 27.1002C57.5339 26.815 57.1721 26.6394 56.8441 26.7449C56.2839 26.8802 54.9296 27.2205 53.7274 27.2479L55.175 25.833C55.416 25.6039 55.3855 25.243 55.1176 25.0315C54.8498 24.8201 54.4331 24.8418 54.1921 25.071L49.3163 29.8914C49.2215 28.8886 49.4121 27.6984 49.527 27.1841C49.587 26.8671 49.3687 26.5779 49.0017 26.5219C48.6346 26.4659 48.3032 26.6512 48.2431 26.9682C48.2379 27.0878 47.7201 29.4222 48.2054 31.0014C47.9148 31.3083 47.4772 31.8085 46.8909 32.5419C45.7054 31.1318 44.3365 28.635 46.0008 25.432C47.2649 22.9305 49.7032 21.0396 52.6938 20.2515C57.9747 18.8444 63.7686 20.4959 66.0884 21.3165Z" fill="#F7E36E" fill-opacity="0.2"/>
<path d="M119.649 38.7521C119.331 38.6184 111.488 35.2394 104.151 37.1957C100.833 38.0893 98.1072 40.2074 96.6465 42.9799C94.6229 47.0062 96.5667 50.0874 98.0697 51.6312C96.6369 53.7658 95.1091 57.0148 95.0288 60.9663C95.0148 61.2853 95.3271 61.5386 95.6498 61.5527C96.0186 61.5689 96.3074 61.3019 96.3214 60.9829C96.3825 57.47 97.7119 54.5319 98.9551 52.5089C99.1343 52.6366 99.223 52.7203 99.223 52.7203C101.33 54.1708 103.244 54.7738 104.95 54.8483C108.039 54.9834 110.419 53.3696 111.815 52.0723C113.018 50.9664 113.864 49.5652 114.257 47.9844C115.745 41.4179 119.604 39.7888 119.604 39.7888C119.839 39.6793 119.986 39.486 119.995 39.2866C120.006 39.0474 119.876 38.842 119.649 38.7521ZM112.929 47.7266C112.591 49.1101 111.89 50.3578 110.832 51.3103C108.569 53.4086 104.888 55.2052 100.047 51.8375C100.047 51.8375 99.8676 51.7098 99.6458 51.5004C100.531 50.2607 101.254 49.5732 101.256 49.5334L104.49 46.3589C104.674 46.367 104.811 46.4129 104.995 46.421C106.793 46.4996 109.037 45.8786 109.131 45.8428C109.459 45.7372 109.657 45.4263 109.531 45.1412C109.405 44.856 109.043 44.6804 108.715 44.7859C108.155 44.9212 106.801 45.2615 105.599 45.2888L107.046 43.874C107.287 43.6448 107.257 43.284 106.989 43.0725C106.721 42.861 106.304 42.8828 106.063 43.1119L101.188 47.9324C101.093 46.9295 101.283 45.7394 101.398 45.2251C101.458 44.9081 101.24 44.6189 100.873 44.5629C100.506 44.5069 100.174 44.6922 100.114 45.0091C100.109 45.1288 99.5914 47.4631 100.077 49.0424C99.7861 49.3493 99.3485 49.8495 98.7622 50.5829C97.5767 49.1728 96.2078 46.676 97.8721 43.4729C99.1362 40.9714 101.574 39.0806 104.565 38.2925C109.846 36.8854 115.64 38.5369 117.96 39.3574C116.53 40.3735 114.118 42.705 112.929 47.7266Z" fill="#F7E36E"/>
<path d="M117.96 39.3577C116.531 40.334 114.072 42.7033 112.929 47.7269C112.591 49.1104 111.89 50.3581 110.832 51.3106C108.569 53.4089 104.888 55.2055 100.047 51.8378C100.047 51.8378 99.8677 51.7101 99.6459 51.5007C100.532 50.261 101.254 49.5735 101.256 49.5337L104.49 46.3592C104.674 46.3673 104.811 46.4132 104.995 46.4213C106.793 46.4999 109.037 45.8789 109.131 45.843C109.459 45.7375 109.657 45.4266 109.531 45.1415C109.405 44.8563 109.043 44.6807 108.715 44.7862C108.155 44.9215 106.801 45.2618 105.599 45.2891L107.046 43.8743C107.287 43.6451 107.257 43.2842 106.989 43.0728C106.721 42.8613 106.304 42.8831 106.063 43.1122L101.188 47.9327C101.093 46.9298 101.283 45.7397 101.398 45.2253C101.458 44.9084 101.24 44.6192 100.873 44.5632C100.506 44.5072 100.175 44.6924 100.114 45.0094C100.109 45.129 99.5915 47.4634 100.077 49.0427C99.7862 49.3496 99.3486 49.8498 98.7622 50.5832C97.5768 49.1731 96.2079 46.6763 97.8721 43.4732C99.1362 40.9717 101.575 39.0808 104.565 38.2927C109.846 36.8857 115.64 38.5372 117.96 39.3577Z" fill="#F7E36E" fill-opacity="0.2"/>
<path d="M159.649 5.75213C159.331 5.61841 151.488 2.23938 144.151 4.19573C140.833 5.08934 138.107 7.20736 136.646 9.9799C134.623 14.0062 136.567 17.0874 138.07 18.6312C136.637 20.7658 135.109 24.0148 135.029 27.9663C135.015 28.2853 135.327 28.5386 135.65 28.5527C136.019 28.5689 136.307 28.3019 136.321 27.9829C136.383 24.47 137.712 21.5319 138.955 19.5089C139.134 19.6366 139.223 19.7203 139.223 19.7203C141.33 21.1708 143.244 21.7738 144.95 21.8483C148.039 21.9834 150.419 20.3696 151.815 19.0723C153.018 17.9664 153.864 16.5652 154.257 14.9844C155.745 8.41787 159.604 6.78884 159.604 6.78884C159.839 6.67929 159.986 6.48598 159.995 6.28661C160.006 6.04737 159.876 5.84196 159.649 5.75213ZM152.929 14.7266C152.591 16.1101 151.89 17.3578 150.832 18.3103C148.569 20.4086 144.888 22.2052 140.047 18.8375C140.047 18.8375 139.868 18.7098 139.646 18.5004C140.531 17.2607 141.254 16.5732 141.256 16.5334L144.49 13.3589C144.674 13.367 144.811 13.4129 144.995 13.421C146.793 13.4996 149.037 12.8786 149.131 12.8428C149.459 12.7372 149.657 12.4263 149.531 12.1412C149.405 11.856 149.043 11.6804 148.715 11.7859C148.155 11.9212 146.801 12.2615 145.599 12.2888L147.046 10.874C147.287 10.6448 147.257 10.284 146.989 10.0725C146.721 9.86104 146.304 9.88278 146.063 10.1119L141.188 14.9324C141.093 13.9295 141.283 12.7394 141.398 12.2251C141.458 11.9081 141.24 11.6189 140.873 11.5629C140.506 11.5069 140.174 11.6922 140.114 12.0091C140.109 12.1288 139.591 14.4631 140.077 16.0424C139.786 16.3493 139.348 16.8495 138.762 17.5829C137.577 16.1728 136.208 13.676 137.872 10.4729C139.136 7.97143 141.574 6.08055 144.565 5.29246C149.846 3.8854 155.64 5.53692 157.96 6.35742C156.53 7.37354 154.118 9.70503 152.929 14.7266Z" fill="#F7E36E"/>
<path d="M157.96 6.35747C156.531 7.33371 154.072 9.70306 152.929 14.7266C152.591 16.1101 151.89 17.3578 150.832 18.3103C148.569 20.4086 144.888 22.2052 140.047 18.8376C140.047 18.8376 139.868 18.7099 139.646 18.5004C140.532 17.2608 141.254 16.5733 141.256 16.5334L144.49 13.359C144.674 13.367 144.811 13.413 144.995 13.421C146.793 13.4996 149.037 12.8786 149.131 12.8428C149.459 12.7373 149.657 12.4264 149.531 12.1412C149.405 11.8561 149.043 11.6804 148.715 11.7859C148.155 11.9213 146.801 12.2615 145.599 12.2889L147.046 10.874C147.287 10.6449 147.257 10.284 146.989 10.0725C146.721 9.86109 146.304 9.88282 146.063 10.112L141.188 14.9324C141.093 13.9296 141.283 12.7394 141.398 12.2251C141.458 11.9081 141.24 11.6189 140.873 11.5629C140.506 11.5069 140.175 11.6922 140.114 12.0092C140.109 12.1288 139.591 14.4632 140.077 16.0424C139.786 16.3493 139.349 16.8495 138.762 17.5829C137.577 16.1728 136.208 13.6761 137.872 10.473C139.136 7.97147 141.575 6.0806 144.565 5.2925C149.846 3.88544 155.64 5.53696 157.96 6.35747Z" fill="#F7E36E" fill-opacity="0.2"/>
<path d="M223.649 24.7521C223.331 24.6184 215.488 21.2394 208.151 23.1957C204.833 24.0893 202.107 26.2074 200.646 28.9799C198.623 33.0062 200.567 36.0874 202.07 37.6312C200.637 39.7658 199.109 43.0148 199.029 46.9663C199.015 47.2853 199.327 47.5386 199.65 47.5527C200.019 47.5689 200.307 47.3019 200.321 46.9829C200.383 43.47 201.712 40.5319 202.955 38.5089C203.134 38.6366 203.223 38.7203 203.223 38.7203C205.33 40.1708 207.244 40.7738 208.95 40.8483C212.039 40.9834 214.419 39.3696 215.815 38.0723C217.018 36.9664 217.864 35.5652 218.257 33.9844C219.745 27.4179 223.604 25.7888 223.604 25.7888C223.839 25.6793 223.986 25.486 223.995 25.2866C224.006 25.0474 223.876 24.842 223.649 24.7521ZM216.929 33.7266C216.591 35.1101 215.89 36.3578 214.832 37.3103C212.569 39.4086 208.888 41.2052 204.047 37.8375C204.047 37.8375 203.868 37.7098 203.646 37.5004C204.531 36.2607 205.254 35.5732 205.256 35.5334L208.49 32.3589C208.674 32.367 208.811 32.4129 208.995 32.421C210.793 32.4996 213.037 31.8786 213.131 31.8428C213.459 31.7372 213.657 31.4263 213.531 31.1412C213.405 30.856 213.043 30.6804 212.715 30.7859C212.155 30.9212 210.801 31.2615 209.599 31.2888L211.046 29.874C211.287 29.6448 211.257 29.284 210.989 29.0725C210.721 28.861 210.304 28.8828 210.063 29.1119L205.188 33.9324C205.093 32.9295 205.283 31.7394 205.398 31.2251C205.458 30.9081 205.24 30.6189 204.873 30.5629C204.506 30.5069 204.174 30.6922 204.114 31.0091C204.109 31.1288 203.591 33.4631 204.077 35.0424C203.786 35.3493 203.348 35.8495 202.762 36.5829C201.577 35.1728 200.208 32.676 201.872 29.4729C203.136 26.9714 205.574 25.0806 208.565 24.2925C213.846 22.8854 219.64 24.5369 221.96 25.3574C220.53 26.3735 218.118 28.705 216.929 33.7266Z" fill="#F7E36E"/>
<path d="M221.96 25.3575C220.531 26.3337 218.072 28.7031 216.929 33.7266C216.591 35.1101 215.89 36.3578 214.832 37.3103C212.569 39.4086 208.888 41.2052 204.047 37.8376C204.047 37.8376 203.868 37.7099 203.646 37.5004C204.531 36.2608 205.254 35.5733 205.256 35.5334L208.49 32.359C208.674 32.367 208.81 32.413 208.995 32.421C210.793 32.4996 213.037 31.8786 213.131 31.8428C213.459 31.7373 213.657 31.4264 213.531 31.1412C213.405 30.8561 213.043 30.6804 212.715 30.7859C212.155 30.9213 210.801 31.2615 209.599 31.2889L211.046 29.874C211.287 29.6449 211.257 29.284 210.989 29.0725C210.721 28.8611 210.304 28.8828 210.063 29.112L205.187 33.9324C205.093 32.9296 205.283 31.7394 205.398 31.2251C205.458 30.9081 205.24 30.6189 204.873 30.5629C204.506 30.5069 204.174 30.6922 204.114 31.0092C204.109 31.1288 203.591 33.4632 204.077 35.0424C203.786 35.3493 203.348 35.8495 202.762 36.5829C201.577 35.1728 200.208 32.6761 201.872 29.473C203.136 26.9715 205.574 25.0806 208.565 24.2925C213.846 22.8854 219.64 24.537 221.96 25.3575Z" fill="#F7E36E" fill-opacity="0.2"/>
<path d="M286.649 17.7521C286.331 17.6184 278.488 14.2394 271.151 16.1957C267.832 17.0893 265.107 19.2074 263.646 21.9799C261.623 26.0062 263.567 29.0874 265.07 30.6312C263.637 32.7658 262.109 36.0148 262.029 39.9663C262.015 40.2853 262.327 40.5386 262.65 40.5527C263.018 40.5689 263.307 40.3019 263.321 39.9829C263.382 36.47 264.712 33.5319 265.955 31.5089C266.134 31.6366 266.223 31.7203 266.223 31.7203C268.33 33.1708 270.244 33.7738 271.95 33.8483C275.039 33.9834 277.419 32.3696 278.815 31.0723C280.018 29.9664 280.864 28.5652 281.257 26.9844C282.745 20.4179 286.603 18.7888 286.603 18.7888C286.839 18.6793 286.986 18.486 286.995 18.2866C287.005 18.0474 286.876 17.842 286.649 17.7521ZM279.929 26.7266C279.591 28.1101 278.89 29.3578 277.832 30.3103C275.569 32.4086 271.888 34.2052 267.047 30.8375C267.047 30.8375 266.868 30.7098 266.646 30.5004C267.531 29.2607 268.254 28.5732 268.256 28.5334L271.489 25.3589C271.674 25.367 271.81 25.4129 271.995 25.421C273.793 25.4996 276.037 24.8786 276.131 24.8428C276.459 24.7372 276.657 24.4263 276.531 24.1412C276.405 23.856 276.043 23.6804 275.715 23.7859C275.155 23.9212 273.801 24.2615 272.599 24.2888L274.046 22.874C274.287 22.6448 274.257 22.284 273.989 22.0725C273.721 21.861 273.304 21.8828 273.063 22.1119L268.187 26.9324C268.093 25.9295 268.283 24.7394 268.398 24.2251C268.458 23.9081 268.24 23.6189 267.873 23.5629C267.506 23.5069 267.174 23.6922 267.114 24.0091C267.109 24.1288 266.591 26.4631 267.076 28.0424C266.786 28.3493 266.348 28.8495 265.762 29.5829C264.577 28.1728 263.208 25.676 264.872 22.4729C266.136 19.9714 268.574 18.0806 271.565 17.2925C276.846 15.8854 282.64 17.5369 284.96 18.3574C283.529 19.3735 281.118 21.705 279.929 26.7266Z" fill="#F7E36E"/>
<path d="M284.96 18.3575C283.531 19.3337 281.072 21.7031 279.929 26.7266C279.591 28.1101 278.89 29.3578 277.832 30.3103C275.569 32.4086 271.888 34.2052 267.047 30.8376C267.047 30.8376 266.868 30.7099 266.646 30.5004C267.531 29.2608 268.254 28.5733 268.256 28.5334L271.49 25.359C271.674 25.367 271.81 25.413 271.995 25.421C273.793 25.4996 276.037 24.8786 276.131 24.8428C276.459 24.7373 276.657 24.4264 276.531 24.1412C276.405 23.8561 276.043 23.6804 275.715 23.7859C275.155 23.9213 273.801 24.2615 272.599 24.2889L274.046 22.874C274.287 22.6449 274.257 22.284 273.989 22.0725C273.721 21.8611 273.304 21.8828 273.063 22.112L268.187 26.9324C268.093 25.9296 268.283 24.7394 268.398 24.2251C268.458 23.9081 268.24 23.6189 267.873 23.5629C267.506 23.5069 267.174 23.6922 267.114 24.0092C267.109 24.1288 266.591 26.4632 267.077 28.0424C266.786 28.3493 266.348 28.8495 265.762 29.5829C264.577 28.1728 263.208 25.6761 264.872 22.473C266.136 19.9715 268.574 18.0806 271.565 17.2925C276.846 15.8854 282.64 17.537 284.96 18.3575Z" fill="#F7E36E" fill-opacity="0.2"/>
<path d="M376.649 -5.24787C376.332 -5.38159 368.489 -8.76062 361.151 -6.80427C357.833 -5.91066 355.107 -3.79264 353.647 -1.0201C351.623 3.00623 353.567 6.08741 355.07 7.63124C353.637 9.76582 352.109 13.0148 352.029 16.9663C352.015 17.2853 352.327 17.5386 352.65 17.5527C353.019 17.5689 353.308 17.3019 353.321 16.9829C353.383 13.47 354.712 10.5319 355.955 8.50889C356.134 8.63657 356.223 8.72035 356.223 8.72035C358.331 10.1708 360.244 10.7738 361.95 10.8483C365.039 10.9834 367.419 9.36959 368.815 8.07234C370.018 6.96641 370.865 5.56523 371.257 3.98442C372.745 -2.58213 376.604 -4.21116 376.604 -4.21116C376.839 -4.32071 376.986 -4.51402 376.995 -4.71339C377.006 -4.95263 376.876 -5.15804 376.649 -5.24787ZM369.929 3.7266C369.591 5.11007 368.89 6.3578 367.832 7.31029C365.569 9.40859 361.888 11.2052 357.047 7.83753C357.047 7.83753 356.868 7.70984 356.646 7.5004C357.532 6.26074 358.254 5.57325 358.256 5.53338L361.49 2.35894C361.674 2.367 361.811 2.41292 361.995 2.42098C363.793 2.49958 366.037 1.8786 366.131 1.84276C366.459 1.73725 366.657 1.42632 366.531 1.14117C366.405 0.856007 366.043 0.680391 365.716 0.785903C365.155 0.92121 363.801 1.2615 362.599 1.28884L364.046 -0.126005C364.287 -0.355167 364.257 -0.716041 363.989 -0.9275C363.721 -1.13896 363.304 -1.11722 363.064 -0.888061L358.188 3.9324C358.093 2.92953 358.283 1.73938 358.398 1.22506C358.458 0.908087 358.24 0.618897 357.873 0.562901C357.506 0.506904 357.175 0.692162 357.114 1.00913C357.109 1.12875 356.592 3.46313 357.077 5.04237C356.786 5.34926 356.349 5.84948 355.762 6.58288C354.577 5.17278 353.208 2.67602 354.872 -0.527073C356.136 -3.02857 358.575 -4.91945 361.565 -5.70754C366.846 -7.1146 372.64 -5.46308 374.96 -4.64258C373.53 -3.62646 371.118 -1.29497 369.929 3.7266Z" fill="#F7E36E"/>
<path d="M374.96 -4.64253C373.531 -3.66629 371.072 -1.29694 369.929 3.72665C369.591 5.11011 368.89 6.35784 367.832 7.31033C365.569 9.40863 361.888 11.2052 357.047 7.83757C357.047 7.83757 356.868 7.70989 356.646 7.50044C357.531 6.26078 358.254 5.57329 358.256 5.53342L361.49 2.35898C361.674 2.36704 361.81 2.41296 361.995 2.42102C363.793 2.49962 366.037 1.87865 366.131 1.8428C366.459 1.73729 366.657 1.42637 366.531 1.14121C366.405 0.85605 366.043 0.680434 365.715 0.785946C365.155 0.921254 363.801 1.26154 362.599 1.28888L364.046 -0.125961C364.287 -0.355123 364.257 -0.715997 363.989 -0.927456C363.721 -1.13891 363.304 -1.11718 363.063 -0.888017L358.187 3.93245C358.093 2.92957 358.283 1.73942 358.398 1.2251C358.458 0.90813 358.24 0.618941 357.873 0.562944C357.506 0.506947 357.174 0.692206 357.114 1.00918C357.109 1.1288 356.591 3.46317 357.077 5.04241C356.786 5.34931 356.348 5.84952 355.762 6.58293C354.577 5.17282 353.208 2.67606 354.872 -0.52703C356.136 -3.02853 358.574 -4.9194 361.565 -5.7075C366.846 -7.11456 372.64 -5.46304 374.96 -4.64253Z" fill="#F7E36E" fill-opacity="0.2"/>
<path d="M331.649 44.7524C331.331 44.6187 323.488 41.2396 316.151 43.196C312.833 44.0896 310.107 46.2076 308.646 48.9801C306.623 53.0065 308.567 56.0877 310.07 57.6315C308.637 59.7661 307.109 63.0151 307.029 66.9666C307.015 67.2855 307.327 67.5389 307.65 67.553C308.019 67.5691 308.307 67.3021 308.321 66.9831C308.383 63.4702 309.712 60.5322 310.955 58.5091C311.134 58.6368 311.223 58.7206 311.223 58.7206C313.33 60.171 315.244 60.774 316.95 60.8486C320.039 60.9836 322.419 59.3698 323.815 58.0726C325.018 56.9667 325.864 55.5655 326.257 53.9847C327.745 47.4181 331.604 45.7891 331.604 45.7891C331.839 45.6795 331.986 45.4862 331.995 45.2869C332.006 45.0476 331.876 44.8422 331.649 44.7524ZM324.929 53.7268C324.591 55.1103 323.89 56.358 322.832 57.3105C320.569 59.4088 316.888 61.2054 312.047 57.8378C312.047 57.8378 311.868 57.7101 311.646 57.5006C312.531 56.261 313.254 55.5735 313.256 55.5336L316.49 52.3592C316.674 52.3672 316.811 52.4132 316.995 52.4212C318.793 52.4998 321.037 51.8788 321.131 51.843C321.459 51.7375 321.657 51.4266 321.531 51.1414C321.405 50.8563 321.043 50.6806 320.715 50.7861C320.155 50.9215 318.801 51.2617 317.599 51.2891L319.046 49.8742C319.287 49.6451 319.257 49.2842 318.989 49.0727C318.721 48.8613 318.304 48.883 318.063 49.1122L313.188 53.9326C313.093 52.9298 313.283 51.7396 313.398 51.2253C313.458 50.9083 313.24 50.6191 312.873 50.5631C312.506 50.5071 312.174 50.6924 312.114 51.0094C312.109 51.129 311.591 53.4634 312.077 55.0426C311.786 55.3495 311.348 55.8497 310.762 56.5831C309.577 55.173 308.208 52.6763 309.872 49.4732C311.136 46.9717 313.574 45.0808 316.565 44.2927C321.846 42.8856 327.64 44.5372 329.96 45.3577C328.53 46.3738 326.118 48.7053 324.929 53.7268Z" fill="#F7E36E"/>
<path d="M329.96 45.358C328.531 46.3342 326.072 48.7035 324.929 53.7271C324.591 55.1106 323.89 56.3583 322.832 57.3108C320.569 59.4091 316.888 61.2057 312.047 57.8381C312.047 57.8381 311.868 57.7104 311.646 57.5009C312.532 56.2613 313.254 55.5738 313.256 55.5339L316.49 52.3595C316.674 52.3675 316.811 52.4134 316.995 52.4215C318.793 52.5001 321.037 51.8791 321.131 51.8433C321.459 51.7378 321.657 51.4269 321.531 51.1417C321.405 50.8565 321.043 50.6809 320.715 50.7864C320.155 50.9217 318.801 51.262 317.599 51.2894L319.046 49.8745C319.287 49.6454 319.257 49.2845 318.989 49.073C318.721 48.8616 318.304 48.8833 318.063 49.1125L313.188 53.9329C313.093 52.9301 313.283 51.7399 313.398 51.2256C313.458 50.9086 313.24 50.6194 312.873 50.5634C312.506 50.5074 312.175 50.6927 312.114 51.0097C312.109 51.1293 311.591 53.4637 312.077 55.0429C311.786 55.3498 311.349 55.85 310.762 56.5834C309.577 55.1733 308.208 52.6766 309.872 49.4735C311.136 46.972 313.575 45.0811 316.565 44.293C321.846 42.8859 327.64 44.5375 329.96 45.358Z" fill="#F7E36E" fill-opacity="0.2"/>
<path d="M417.649 16.7521C417.332 16.6184 409.489 13.2394 402.151 15.1957C398.833 16.0893 396.107 18.2074 394.647 20.9799C392.623 25.0062 394.567 28.0874 396.07 29.6312C394.637 31.7658 393.109 35.0148 393.029 38.9663C393.015 39.2853 393.327 39.5386 393.65 39.5527C394.019 39.5689 394.308 39.3019 394.321 38.9829C394.383 35.47 395.712 32.5319 396.955 30.5089C397.134 30.6366 397.223 30.7203 397.223 30.7203C399.331 32.1708 401.244 32.7738 402.95 32.8483C406.039 32.9834 408.419 31.3696 409.815 30.0723C411.018 28.9664 411.865 27.5652 412.257 25.9844C413.745 19.4179 417.604 17.7888 417.604 17.7888C417.839 17.6793 417.986 17.486 417.995 17.2866C418.006 17.0474 417.876 16.842 417.649 16.7521ZM410.929 25.7266C410.591 27.1101 409.89 28.3578 408.832 29.3103C406.569 31.4086 402.888 33.2052 398.047 29.8375C398.047 29.8375 397.868 29.7098 397.646 29.5004C398.532 28.2607 399.254 27.5732 399.256 27.5334L402.49 24.3589C402.674 24.367 402.811 24.4129 402.995 24.421C404.793 24.4996 407.037 23.8786 407.131 23.8428C407.459 23.7372 407.657 23.4263 407.531 23.1412C407.405 22.856 407.043 22.6804 406.716 22.7859C406.155 22.9212 404.801 23.2615 403.599 23.2888L405.046 21.874C405.287 21.6448 405.257 21.284 404.989 21.0725C404.721 20.861 404.304 20.8828 404.064 21.1119L399.188 25.9324C399.093 24.9295 399.283 23.7394 399.398 23.2251C399.458 22.9081 399.24 22.6189 398.873 22.5629C398.506 22.5069 398.175 22.6922 398.114 23.0091C398.109 23.1288 397.592 25.4631 398.077 27.0424C397.786 27.3493 397.349 27.8495 396.762 28.5829C395.577 27.1728 394.208 24.676 395.872 21.4729C397.136 18.9714 399.575 17.0806 402.565 16.2925C407.846 14.8854 413.64 16.5369 415.96 17.3574C414.53 18.3735 412.118 20.705 410.929 25.7266Z" fill="#F7E36E"/>
<path d="M415.96 17.3577C414.532 18.334 412.072 20.7033 410.929 25.7269C410.591 27.1104 409.89 28.3581 408.832 29.3106C406.57 31.4089 402.888 33.2055 398.047 29.8378C398.047 29.8378 397.868 29.7101 397.646 29.5007C398.532 28.261 399.255 27.5735 399.256 27.5337L402.49 24.3592C402.674 24.3673 402.811 24.4132 402.995 24.4213C404.793 24.4999 407.037 23.8789 407.131 23.843C407.459 23.7375 407.658 23.4266 407.531 23.1415C407.405 22.8563 407.044 22.6807 406.716 22.7862C406.155 22.9215 404.801 23.2618 403.599 23.2891L405.046 21.8743C405.287 21.6451 405.257 21.2842 404.989 21.0728C404.721 20.8613 404.305 20.8831 404.064 21.1122L399.188 25.9327C399.093 24.9298 399.284 23.7397 399.398 23.2253C399.458 22.9084 399.24 22.6192 398.873 22.5632C398.506 22.5072 398.175 22.6924 398.115 23.0094C398.109 23.129 397.592 25.4634 398.077 27.0427C397.786 27.3496 397.349 27.8498 396.762 28.5832C395.577 27.1731 394.208 24.6763 395.872 21.4732C397.136 18.9717 399.575 17.0808 402.565 16.2927C407.846 14.8857 413.64 16.5372 415.96 17.3577Z" fill="#F7E36E" fill-opacity="0.2"/>
<path d="M486.649 19.7521C486.332 19.6184 478.489 16.2394 471.151 18.1957C467.833 19.0893 465.107 21.2074 463.647 23.9799C461.623 28.0062 463.567 31.0874 465.07 32.6312C463.637 34.7658 462.109 38.0148 462.029 41.9663C462.015 42.2853 462.327 42.5386 462.65 42.5527C463.019 42.5689 463.308 42.3019 463.321 41.9829C463.383 38.47 464.712 35.5319 465.955 33.5089C466.134 33.6366 466.223 33.7203 466.223 33.7203C468.331 35.1708 470.244 35.7738 471.95 35.8483C475.039 35.9834 477.419 34.3696 478.815 33.0723C480.018 31.9664 480.865 30.5652 481.257 28.9844C482.745 22.4179 486.604 20.7888 486.604 20.7888C486.839 20.6793 486.986 20.486 486.995 20.2866C487.006 20.0474 486.876 19.842 486.649 19.7521ZM479.929 28.7266C479.591 30.1101 478.89 31.3578 477.832 32.3103C475.569 34.4086 471.888 36.2052 467.047 32.8375C467.047 32.8375 466.868 32.7098 466.646 32.5004C467.532 31.2607 468.254 30.5732 468.256 30.5334L471.49 27.3589C471.674 27.367 471.811 27.4129 471.995 27.421C473.793 27.4996 476.037 26.8786 476.131 26.8428C476.459 26.7372 476.657 26.4263 476.531 26.1412C476.405 25.856 476.043 25.6804 475.716 25.7859C475.155 25.9212 473.801 26.2615 472.599 26.2888L474.046 24.874C474.287 24.6448 474.257 24.284 473.989 24.0725C473.721 23.861 473.304 23.8828 473.064 24.1119L468.188 28.9324C468.093 27.9295 468.283 26.7394 468.398 26.2251C468.458 25.9081 468.24 25.6189 467.873 25.5629C467.506 25.5069 467.175 25.6922 467.114 26.0091C467.109 26.1288 466.592 28.4631 467.077 30.0424C466.786 30.3493 466.349 30.8495 465.762 31.5829C464.577 30.1728 463.208 27.676 464.872 24.4729C466.136 21.9714 468.575 20.0806 471.565 19.2925C476.846 17.8854 482.64 19.5369 484.96 20.3574C483.53 21.3735 481.118 23.705 479.929 28.7266Z" fill="#F7E36E"/>
<path d="M484.96 20.3577C483.532 21.334 481.072 23.7033 479.929 28.7269C479.591 30.1104 478.89 31.3581 477.832 32.3106C475.57 34.4089 471.888 36.2055 467.047 32.8378C467.047 32.8378 466.868 32.7101 466.646 32.5007C467.532 31.261 468.255 30.5735 468.256 30.5337L471.49 27.3592C471.674 27.3673 471.811 27.4132 471.995 27.4213C473.793 27.4999 476.037 26.8789 476.131 26.843C476.459 26.7375 476.658 26.4266 476.531 26.1415C476.405 25.8563 476.044 25.6807 475.716 25.7862C475.155 25.9215 473.801 26.2618 472.599 26.2891L474.046 24.8743C474.287 24.6451 474.257 24.2842 473.989 24.0728C473.721 23.8613 473.305 23.8831 473.064 24.1122L468.188 28.9327C468.093 27.9298 468.284 26.7397 468.398 26.2253C468.458 25.9084 468.24 25.6192 467.873 25.5632C467.506 25.5072 467.175 25.6924 467.115 26.0094C467.109 26.129 466.592 28.4634 467.077 30.0427C466.786 30.3496 466.349 30.8498 465.762 31.5832C464.577 30.1731 463.208 27.6763 464.872 24.4732C466.136 21.9717 468.575 20.0808 471.565 19.2927C476.846 17.8857 482.64 19.5372 484.96 20.3577Z" fill="#F7E36E" fill-opacity="0.2"/>
<path d="M109.649 -10.2479C109.331 -10.3816 101.488 -13.7606 94.1511 -11.8043C90.8326 -10.9107 88.1072 -8.79264 86.6465 -6.0201C84.6229 -1.99377 86.5667 1.08741 88.0697 2.63124C86.6369 4.76582 85.1091 8.01483 85.0288 11.9663C85.0148 12.2853 85.3271 12.5386 85.6498 12.5527C86.0186 12.5689 86.3074 12.3019 86.3214 11.9829C86.3825 8.47 87.7119 5.53191 88.9551 3.50889C89.1343 3.63657 89.223 3.72035 89.223 3.72035C91.3305 5.17076 93.2441 5.77376 94.9498 5.84833C98.0386 5.98336 100.419 4.36959 101.815 3.07234C103.018 1.96641 103.864 0.565235 104.257 -1.01558C105.745 -7.58213 109.604 -9.21116 109.604 -9.21116C109.839 -9.32071 109.986 -9.51402 109.995 -9.71339C110.006 -9.95263 109.876 -10.158 109.649 -10.2479ZM102.929 -1.2734C102.591 0.110071 101.89 1.3578 100.832 2.31029C98.5694 4.40859 94.888 6.20517 90.0468 2.83753C90.0468 2.83753 89.8676 2.70984 89.6458 2.5004C90.5314 1.26074 91.2543 0.57325 91.2561 0.533376L94.4896 -2.64106C94.674 -2.633 94.8105 -2.58708 94.9949 -2.57902C96.7929 -2.50042 99.0371 -3.1214 99.1311 -3.15724C99.459 -3.26275 99.6574 -3.57368 99.5313 -3.85883C99.4052 -4.14399 99.0433 -4.31961 98.7154 -4.2141C98.1552 -4.07879 96.8008 -3.7385 95.5987 -3.71116L97.0462 -5.12601C97.2872 -5.35517 97.2568 -5.71604 96.9889 -5.9275C96.721 -6.13896 96.3043 -6.11722 96.0634 -5.88806L91.1875 -1.0676C91.0928 -2.07047 91.2834 -3.26062 91.3982 -3.77494C91.4583 -4.09191 91.24 -4.3811 90.8729 -4.4371C90.5058 -4.4931 90.1744 -4.30784 90.1144 -3.99087C90.1091 -3.87125 89.5914 -1.53687 90.0766 0.042371C89.7861 0.349264 89.3485 0.849477 88.7622 1.58288C87.5767 0.172777 86.2078 -2.32398 87.8721 -5.52707C89.1362 -8.02857 91.5745 -9.91945 94.5651 -10.7075C99.846 -12.1146 105.64 -10.4631 107.96 -9.64258C106.53 -8.62646 104.118 -6.29497 102.929 -1.2734Z" fill="#F7E36E"/>
<path d="M107.96 -9.64229C106.531 -8.66605 104.072 -6.2967 102.929 -1.27311C102.591 0.110358 101.89 1.35808 100.832 2.31058C98.5695 4.40888 94.8881 6.20546 90.0469 2.83781C90.0469 2.83781 89.8677 2.71013 89.6459 2.50069C90.5315 1.26102 91.2544 0.573537 91.2562 0.533664L94.4896 -2.64078C94.6741 -2.63272 94.8106 -2.5868 94.995 -2.57873C96.793 -2.50013 99.0372 -3.12111 99.1312 -3.15695C99.4591 -3.26246 99.6575 -3.57339 99.5314 -3.85855C99.4053 -4.14371 99.0434 -4.31932 98.7155 -4.21381C98.1553 -4.0785 96.8009 -3.73822 95.5988 -3.71087L97.0463 -5.12572C97.2873 -5.35488 97.2569 -5.71575 96.989 -5.92721C96.7211 -6.13867 96.3044 -6.11694 96.0635 -5.88777L91.1876 -1.06731C91.0929 -2.07019 91.2835 -3.26034 91.3983 -3.77466C91.4584 -4.09163 91.2401 -4.38082 90.873 -4.43681C90.5059 -4.49281 90.1745 -4.30755 90.1145 -3.99058C90.1092 -3.87096 89.5915 -1.53658 90.0767 0.0426582C89.7862 0.349551 89.3486 0.849764 88.7622 1.58317C87.5768 0.173065 86.2079 -2.32369 87.8721 -5.52679C89.1362 -8.02828 91.5746 -9.91916 94.5652 -10.7073C99.8461 -12.1143 105.64 -10.4628 107.96 -9.64229Z" fill="#F7E36E" fill-opacity="0.2"/>
<path d="M177.649 52.7521C177.331 52.6184 169.488 49.2394 162.151 51.1957C158.833 52.0893 156.107 54.2074 154.646 56.9799C152.623 61.0062 154.567 64.0874 156.07 65.6312C154.637 67.7658 153.109 71.0148 153.029 74.9663C153.015 75.2853 153.327 75.5386 153.65 75.5527C154.019 75.5689 154.307 75.3019 154.321 74.9829C154.383 71.47 155.712 68.5319 156.955 66.5089C157.134 66.6366 157.223 66.7203 157.223 66.7203C159.33 68.1708 161.244 68.7738 162.95 68.8483C166.039 68.9834 168.419 67.3696 169.815 66.0723C171.018 64.9664 171.864 63.5652 172.257 61.9844C173.745 55.4179 177.604 53.7888 177.604 53.7888C177.839 53.6793 177.986 53.486 177.995 53.2866C178.006 53.0474 177.876 52.842 177.649 52.7521ZM170.929 61.7266C170.591 63.1101 169.89 64.3578 168.832 65.3103C166.569 67.4086 162.888 69.2052 158.047 65.8375C158.047 65.8375 157.868 65.7098 157.646 65.5004C158.531 64.2607 159.254 63.5732 159.256 63.5334L162.49 60.3589C162.674 60.367 162.811 60.4129 162.995 60.421C164.793 60.4996 167.037 59.8786 167.131 59.8428C167.459 59.7372 167.657 59.4263 167.531 59.1412C167.405 58.856 167.043 58.6804 166.715 58.7859C166.155 58.9212 164.801 59.2615 163.599 59.2888L165.046 57.874C165.287 57.6448 165.257 57.284 164.989 57.0725C164.721 56.861 164.304 56.8828 164.063 57.1119L159.188 61.9324C159.093 60.9295 159.283 59.7394 159.398 59.2251C159.458 58.9081 159.24 58.6189 158.873 58.5629C158.506 58.5069 158.174 58.6922 158.114 59.0091C158.109 59.1288 157.591 61.4631 158.077 63.0424C157.786 63.3493 157.348 63.8495 156.762 64.5829C155.577 63.1728 154.208 60.676 155.872 57.4729C157.136 54.9714 159.574 53.0806 162.565 52.2925C167.846 50.8854 173.64 52.5369 175.96 53.3574C174.53 54.3735 172.118 56.705 170.929 61.7266Z" fill="#F7E36E"/>
<path d="M175.96 53.3577C174.531 54.334 172.072 56.7033 170.929 61.7269C170.591 63.1104 169.89 64.3581 168.832 65.3106C166.569 67.4089 162.888 69.2055 158.047 65.8378C158.047 65.8378 157.868 65.7101 157.646 65.5007C158.532 64.261 159.254 63.5735 159.256 63.5337L162.49 60.3592C162.674 60.3673 162.811 60.4132 162.995 60.4213C164.793 60.4999 167.037 59.8789 167.131 59.843C167.459 59.7375 167.657 59.4266 167.531 59.1415C167.405 58.8563 167.043 58.6807 166.715 58.7862C166.155 58.9215 164.801 59.2618 163.599 59.2891L165.046 57.8743C165.287 57.6451 165.257 57.2842 164.989 57.0728C164.721 56.8613 164.304 56.8831 164.063 57.1122L159.188 61.9327C159.093 60.9298 159.283 59.7397 159.398 59.2253C159.458 58.9084 159.24 58.6192 158.873 58.5632C158.506 58.5072 158.175 58.6924 158.114 59.0094C158.109 59.129 157.591 61.4634 158.077 63.0427C157.786 63.3496 157.349 63.8498 156.762 64.5832C155.577 63.1731 154.208 60.6763 155.872 57.4732C157.136 54.9717 159.575 53.0808 162.565 52.2927C167.846 50.8857 173.64 52.5372 175.96 53.3577Z" fill="#F7E36E" fill-opacity="0.2"/>
</g>
<defs>
<clipPath id="clip0_402_2">
<rect width="500" height="58" fill="white"/>
</clipPath>
</defs>
</svg>
