<svg width="412" height="65" viewBox="0 0 412 65" fill="none" xmlns="http://www.w3.org/2000/svg">
<path d="M43.28 51.201C43.28 51.343 43.0907 51.414 42.712 51.414C41.4813 51.414 40.5583 51.059 39.943 50.349C37.4817 37.9003 36.251 27.2267 36.251 18.328C36.251 16.0087 36.322 13.713 36.464 11.441C31.0207 24.079 27.2577 35.9833 25.175 47.154L26.027 50.349L24.465 51.485L17.72 48.574C16.4893 37.2613 13.7203 24.7417 9.413 11.015C8.987 17.8783 8.32433 25.144 7.425 32.812C6.52567 40.4327 5.60267 46.0417 4.656 49.639C4.27733 50.0177 3.70933 50.3253 2.952 50.562C2.19467 50.846 1.57933 50.988 1.106 50.988C0.632667 50.988 0.396 50.8933 0.396 50.704L0.893 48.361C1.22433 46.799 1.57933 44.101 1.958 40.267C2.33667 36.433 2.526 32.457 2.526 28.339C2.526 20.4343 2.029 13.3107 1.035 6.968L0.538 3.844L7.851 0.932997L9.697 2.069C14.0517 11.9143 18.1697 23.2507 22.051 36.078C25.2697 27.416 30.429 16.1507 37.529 2.282C37.5763 2.18733 37.6 2.11633 37.6 2.069L39.446 0.932997L45.481 3.844C43.3037 9.42933 42.215 18.0203 42.215 29.617C42.215 38.2317 42.57 45.4263 43.28 51.201ZM54.8347 32.315C54.03 31.5577 53.6277 30.611 53.6277 29.475C53.6277 29.0963 53.6987 28.907 53.8407 28.907C54.8347 29.0963 56.302 29.191 58.2427 29.191H59.5207C59.2367 17.0263 57.367 8.90867 53.9117 4.838L57.2487 0.0809993C60.9407 2.44766 66.0054 4.95633 72.4427 7.607C74.5254 8.459 76.5134 9.40567 78.4067 10.447C82.2407 12.577 84.1577 15.3697 84.1577 18.825C84.1577 20.9077 83.4714 22.9193 82.0987 24.86C80.7734 26.8007 78.6197 28.41 75.6377 29.688C79.7084 38.6813 83.566 45.5683 87.2107 50.349V50.42C87.2107 50.9407 86.4297 51.201 84.8677 51.201C84.489 51.201 84.205 51.1773 84.0157 51.13C80.7497 47.9113 76.2057 41.3083 70.3837 31.321C68.6324 31.6997 66.5024 32.0073 63.9937 32.244C63.8044 35.2733 63.1417 41.3083 62.0057 50.349C61.2957 51.059 60.5384 51.414 59.7337 51.414C58.9764 51.414 58.5977 51.343 58.5977 51.201C59.2604 44.9057 59.5917 38.6813 59.5917 32.528V32.386H59.2367C57.2487 32.386 55.7814 32.3623 54.8347 32.315ZM63.1417 8.033C63.9464 12.5297 64.3487 16.6003 64.3487 20.245C64.3487 23.8897 64.2777 26.7533 64.1357 28.836C68.3484 28.268 71.5434 27.132 73.7207 25.428C75.898 23.6767 76.9867 21.6887 76.9867 19.464C76.9867 17.476 76.324 15.843 74.9987 14.565C74.2887 13.855 73.626 13.2633 73.0107 12.79C72.4427 12.3167 71.4724 11.7487 70.0997 11.086C68.727 10.4233 67.662 9.95 66.9047 9.666C66.1947 9.33466 64.9404 8.79033 63.1417 8.033ZM104.557 50.349C103.895 51.0117 102.877 51.343 101.504 51.343C101.173 51.343 101.007 51.272 101.007 51.13C102.049 44.8347 102.569 38.1133 102.569 30.966C102.569 23.7713 102.285 16.979 101.717 10.589C100.913 10.6363 99.4691 10.66 97.3864 10.66C95.3511 10.66 93.0554 10.447 90.4994 10.021L89.3634 8.175L92.0614 2.069C95.0434 3.67833 99.2324 4.483 104.628 4.483C110.072 4.483 115.349 3.844 120.461 2.566C120.651 2.566 120.745 2.96833 120.745 3.773C120.745 4.57767 120.39 5.28767 119.68 5.903C115.894 7.51233 112.273 8.71933 108.817 9.524C107.965 29.0253 106.545 42.6337 104.557 50.349ZM151.917 1.572L153.763 2.85C151.727 14.8727 143.941 28.41 130.404 43.462C141.716 44.5507 149.242 45.7103 152.982 46.941C153.55 47.651 153.834 48.5267 153.834 49.568C153.834 50.6093 153.786 51.13 153.692 51.13C148.911 50.0887 143.752 49.568 138.214 49.568C132.676 49.568 127.422 49.9467 122.452 50.704L121.103 48.574L121.6 48.077C134.474 33.2143 142.284 20.245 145.03 9.169C141.148 10.021 137.646 10.447 134.522 10.447C131.398 10.447 128.629 10.2813 126.215 9.95L123.304 4.057L124.369 2.14C127.966 3.74933 133.551 4.554 141.125 4.554C142.971 4.554 144.746 4.483 146.45 4.341L151.917 1.572ZM164.091 1.43C165.464 1.43 166.552 1.927 167.357 2.921C168.162 3.915 168.564 5.264 168.564 6.968C168.564 8.672 168.209 10.3287 167.499 11.938C166.836 13.5 166.008 14.778 165.014 15.772C164.067 16.766 163.05 17.618 161.961 18.328C159.973 19.7007 158.577 20.387 157.772 20.387C157.583 20.387 157.346 20.1267 157.062 19.606C156.778 19.038 156.636 18.5647 156.636 18.186C159.997 16.624 161.795 14.2337 162.032 11.015L158.979 6.613C158.979 5.00366 159.476 3.74933 160.47 2.85C161.511 1.90333 162.718 1.43 164.091 1.43ZM196.524 15.488L194.252 21.807C192.074 20.387 189.921 19.677 187.791 19.677C184.288 19.677 182.537 21.026 182.537 23.724C182.537 25.57 184.004 27.7237 186.939 30.185C188.217 31.2263 189.471 32.315 190.702 33.451C193.636 36.149 195.104 38.8707 195.104 41.616C195.104 43.746 194.299 45.7813 192.69 47.722C191.79 48.7633 190.323 49.5917 188.288 50.207C186.3 50.8697 184.004 51.201 181.401 51.201C178.797 51.201 176.454 50.8697 174.372 50.207C174.135 50.0177 173.851 49.5917 173.52 48.929C173.236 48.219 173.094 47.722 173.094 47.438C173.094 47.154 173.141 47.012 173.236 47.012C173.378 47.012 173.733 47.083 174.301 47.225C175.721 47.6037 177.519 47.793 179.697 47.793C181.874 47.793 183.696 47.3197 185.164 46.373C186.678 45.4263 187.436 44.2193 187.436 42.752C187.436 41.2847 186.82 39.841 185.59 38.421C184.406 37.001 183.081 35.723 181.614 34.587C180.194 33.451 178.868 32.0547 177.638 30.398C176.454 28.694 175.863 26.99 175.863 25.286C175.863 23.7713 176.36 22.4223 177.354 21.239C178.395 20.0083 179.578 18.9907 180.904 18.186C184.122 16.2927 188.808 14.9437 194.962 14.139L196.524 15.488ZM223.961 63.626C223.156 63.626 222.375 63.2473 221.618 62.49C221.476 62.49 221.405 62.277 221.405 61.851C221.547 60.6677 221.949 59.863 222.612 59.437C223.795 59.011 225.57 58.4667 227.937 57.804C230.635 55.7687 233.096 53.4967 235.321 50.988C231.25 50.0887 227.937 47.864 225.381 44.314C222.872 40.7167 221.618 36.0543 221.618 30.327C221.618 23.7003 223.7 17.6653 227.866 12.222C230.043 9.33466 233.143 6.897 237.167 4.909C241.19 2.87366 245.9 1.572 251.296 1.004L252.503 2.779L250.444 6.897C252.81 8.93233 254.751 11.8433 256.266 15.63C257.828 19.4167 258.609 23.085 258.609 26.635C258.609 30.1377 258.277 33.2143 257.615 35.865C256.952 38.4683 255.934 40.906 254.562 43.178C253.236 45.45 251.39 47.3197 249.024 48.787C246.657 50.2543 243.912 51.1063 240.788 51.343C239.368 52.9523 237.664 54.6327 235.676 56.384C237.096 56.242 239.107 56.171 241.711 56.171C244.314 56.171 247.249 56.6207 250.515 57.52L251.509 59.295L248.527 64.904C245.024 62.7267 239.581 61.638 232.197 61.638C230.303 61.638 228.931 61.6617 228.079 61.709C226.801 62.4663 225.807 62.9633 225.097 63.2C224.387 63.484 224.008 63.626 223.961 63.626ZM240.717 45.521C245.024 45.379 248.314 43.7697 250.586 40.693C252.905 37.6163 254.065 34.019 254.065 29.901C254.065 25.7357 253.378 21.594 252.006 17.476C250.633 13.358 248.716 10.0683 246.255 7.607C240.243 8.459 235.77 10.7073 232.836 14.352C229.901 17.9493 228.434 22.4933 228.434 27.984C228.434 33.4273 229.617 37.711 231.984 40.835C234.398 43.959 237.309 45.521 240.717 45.521ZM272.741 15.772C272.079 22.0673 271.747 27.1083 271.747 30.895C271.747 38.3263 273.144 42.042 275.936 42.042C277.688 42.042 279.51 40.8587 281.403 38.492C283.297 36.078 284.953 32.6463 286.373 28.197C286.326 27.4397 286.302 25.9013 286.302 23.582C286.302 21.2627 286.515 18.896 286.941 16.482L292.621 13.997L294.396 14.991C292.834 19.5823 292.053 24.8837 292.053 30.895C292.053 33.4983 292.243 37.072 292.621 41.616C293.047 46.16 293.473 49.213 293.899 50.775C293.899 50.917 293.521 50.988 292.763 50.988C292.053 50.988 291.367 50.6567 290.704 49.994C289.284 46.586 288.077 41.4503 287.083 34.587C285.143 39.273 282.776 43.107 279.983 46.089C277.238 49.071 274.635 50.562 272.173 50.562C268.387 50.562 266.493 47.8877 266.493 42.539C266.493 38.8943 266.683 35.4627 267.061 32.244C267.487 29.0253 267.89 25.9723 268.268 23.085C268.694 20.1977 269.002 17.9967 269.191 16.482C269.428 16.2453 269.901 16.0323 270.611 15.843C271.321 15.6063 271.842 15.488 272.173 15.488C272.552 15.488 272.741 15.5827 272.741 15.772ZM328.245 16.553L324.837 20.458C327.488 23.6767 328.813 27.7237 328.813 32.599C328.813 39.4623 326.612 44.74 322.21 48.432C319.891 50.3727 317.027 51.343 313.619 51.343C310.259 51.343 307.371 49.994 304.957 47.296C302.591 44.598 301.407 40.8823 301.407 36.149C301.407 31.179 303.253 26.6587 306.945 22.588C308.886 20.458 311.608 18.683 315.11 17.263C318.66 15.843 322.778 14.9437 327.464 14.565L328.245 16.553ZM314.684 44.882C317.572 44.882 319.962 43.6513 321.855 41.19C323.796 38.7287 324.766 36.1727 324.766 33.522C324.766 27.7947 323.465 23.369 320.861 20.245C317.217 20.8603 314.14 22.4933 311.631 25.144C309.123 27.7947 307.868 30.8003 307.868 34.161C307.868 37.5217 308.46 40.1487 309.643 42.042C310.874 43.9353 312.554 44.882 314.684 44.882ZM356.188 16.553L354.058 21.523C351.739 21.9963 349.372 22.2567 346.958 22.304C346.059 34.8947 344.875 43.9827 343.408 49.568C342.84 50.2307 341.846 50.562 340.426 50.562C340.095 50.562 339.929 50.491 339.929 50.349C340.97 43.6277 341.491 37.0957 341.491 30.753C341.491 28.4337 341.42 25.57 341.278 22.162C338.769 21.878 336.805 21.5467 335.385 21.168C335.101 21.026 334.793 20.5527 334.462 19.748C334.178 18.896 334.012 18.2333 333.965 17.76L334.249 17.334C336.095 17.7127 338.367 17.902 341.065 17.902C340.781 12.6953 340.521 9.19266 340.284 7.394L341.988 6.187L347.739 9.24L347.313 17.547C349.822 17.263 352.543 16.553 355.478 15.417L356.188 16.553ZM382.989 22.872C382.468 25.0493 381.427 27.0137 379.865 28.765C378.303 30.5163 376.528 31.9127 374.54 32.954C370.895 34.8473 367.7 36.0543 364.955 36.575C365.144 38.9417 365.76 40.693 366.801 41.829C367.842 42.965 369.097 43.533 370.564 43.533C374.729 43.533 378.492 40.0303 381.853 33.025C381.9 32.741 382.137 32.599 382.563 32.599C382.989 32.599 383.628 32.9303 384.48 33.593C382.445 38.5157 379.936 42.5863 376.954 45.805C374.019 48.9763 371.085 50.562 368.15 50.562C365.215 50.562 362.92 49.497 361.263 47.367C359.654 45.237 358.849 42.3733 358.849 38.776C358.849 33.806 360.198 29.2147 362.896 25.002C364.363 22.73 366.422 20.742 369.073 19.038C371.771 17.2867 374.966 15.985 378.658 15.133C381.545 16.127 382.989 18.7067 382.989 22.872ZM374.682 20.742C372.694 20.742 370.635 21.9017 368.505 24.221C366.375 26.493 365.192 29.6643 364.955 33.735C368.884 32.6937 371.889 31.179 373.972 29.191C376.102 27.1557 377.167 25.1677 377.167 23.227C377.167 22.517 376.954 21.9253 376.528 21.452C376.102 20.9787 375.487 20.742 374.682 20.742ZM411.373 15.488L409.101 21.807C406.924 20.387 404.77 19.677 402.64 19.677C399.138 19.677 397.386 21.026 397.386 23.724C397.386 25.57 398.854 27.7237 401.788 30.185C403.066 31.2263 404.321 32.315 405.551 33.451C408.486 36.149 409.953 38.8707 409.953 41.616C409.953 43.746 409.149 45.7813 407.539 47.722C406.64 48.7633 405.173 49.5917 403.137 50.207C401.149 50.8697 398.854 51.201 396.25 51.201C393.647 51.201 391.304 50.8697 389.221 50.207C388.985 50.0177 388.701 49.5917 388.369 48.929C388.085 48.219 387.943 47.722 387.943 47.438C387.943 47.154 387.991 47.012 388.085 47.012C388.227 47.012 388.582 47.083 389.15 47.225C390.57 47.6037 392.369 47.793 394.546 47.793C396.724 47.793 398.546 47.3197 400.013 46.373C401.528 45.4263 402.285 44.2193 402.285 42.752C402.285 41.2847 401.67 39.841 400.439 38.421C399.256 37.001 397.931 35.723 396.463 34.587C395.043 33.451 393.718 32.0547 392.487 30.398C391.304 28.694 390.712 26.99 390.712 25.286C390.712 23.7713 391.209 22.4223 392.203 21.239C393.245 20.0083 394.428 18.9907 395.753 18.186C398.972 16.2927 403.658 14.9437 409.811 14.139L411.373 15.488Z" fill="#F7DF76"/>
</svg>
